<svg width="30" height="30" viewBox="0 0 30 30" fill="none" xmlns="http://www.w3.org/2000/svg">
<path d="M6.51093 16.25H20.4734L14.3734 22.35C13.8859 22.8375 13.8859 23.6375 14.3734 24.125C14.8609 24.6125 15.6484 24.6125 16.1359 24.125L24.3734 15.8875C24.8609 15.4 24.8609 14.6125 24.3734 14.125L16.1484 5.87499C15.9149 5.64093 15.5978 5.50938 15.2672 5.50938C14.9365 5.50938 14.6195 5.64093 14.3859 5.87499C13.8984 6.36249 13.8984 7.14999 14.3859 7.63749L20.4734 13.75H6.51093C5.82343 13.75 5.26093 14.3125 5.26093 15C5.26093 15.6875 5.82343 16.25 6.51093 16.25Z" fill="white"/>
</svg>
