<svg width="21" height="21" viewBox="0 0 21 21" fill="none" xmlns="http://www.w3.org/2000/svg">
<path d="M4.51085 11.2582H14.1842L9.95807 15.4843C9.62033 15.822 9.62033 16.3763 9.95807 16.714C10.2958 17.0518 10.8414 17.0518 11.1791 16.714L16.8862 11.007C17.2239 10.6693 17.2239 10.1237 16.8862 9.78594L11.1878 4.07025C11.026 3.90809 10.8063 3.81696 10.5773 3.81696C10.3482 3.81696 10.1285 3.90809 9.96673 4.07025C9.62899 4.408 9.62899 4.95359 9.96673 5.29133L14.1842 9.52613H4.51085C4.03454 9.52613 3.64484 9.91584 3.64484 10.3921C3.64484 10.8685 4.03454 11.2582 4.51085 11.2582Z" fill="#FF4857"/>
</svg>
