<svg width="77" height="20" viewBox="0 0 77 20" fill="none" xmlns="http://www.w3.org/2000/svg">
<path d="M3.536 14C2.928 14 2.376 13.848 1.88 13.544C1.384 13.24 0.984 12.84 0.68 12.344C0.376 11.848 0.224 11.296 0.224 10.688V3.392C0.224 2.784 0.376 2.232 0.68 1.736C0.984 1.24 1.384 0.839999 1.88 0.535999C2.376 0.231999 2.928 0.079999 3.536 0.079999H14.336V3.224H3.656C3.576 3.224 3.504 3.256 3.44 3.32C3.392 3.368 3.368 3.432 3.368 3.512V10.568C3.368 10.648 3.392 10.72 3.44 10.784C3.504 10.832 3.576 10.856 3.656 10.856H14.36V14H3.536ZM20.0594 14C19.4514 14 18.8994 13.848 18.4034 13.544C17.9074 13.24 17.5074 12.84 17.2034 12.344C16.8994 11.848 16.7474 11.296 16.7474 10.688V3.392C16.7474 2.784 16.8994 2.232 17.2034 1.736C17.5074 1.24 17.9074 0.839999 18.4034 0.535999C18.8994 0.231999 19.4514 0.079999 20.0594 0.079999H27.5714C28.1794 0.079999 28.7314 0.231999 29.2274 0.535999C29.7394 0.839999 30.1394 1.24 30.4274 1.736C30.7314 2.232 30.8834 2.784 30.8834 3.392V10.688C30.8834 11.296 30.7314 11.848 30.4274 12.344C30.1394 12.84 29.7474 13.24 29.2514 13.544C28.7554 13.848 28.1954 14 27.5714 14H20.0594ZM20.1794 10.856H27.4514C27.5314 10.856 27.5954 10.832 27.6434 10.784C27.7074 10.72 27.7394 10.648 27.7394 10.568V3.512C27.7394 3.432 27.7074 3.368 27.6434 3.32C27.5954 3.256 27.5314 3.224 27.4514 3.224H20.1794C20.0994 3.224 20.0274 3.256 19.9634 3.32C19.9154 3.368 19.8914 3.432 19.8914 3.512V10.568C19.8914 10.648 19.9154 10.72 19.9634 10.784C20.0274 10.832 20.0994 10.856 20.1794 10.856ZM33.5566 8.48V5.336H43.3726V8.48H33.5566ZM49.0751 14C48.4671 14 47.9151 13.848 47.4191 13.544C46.9231 13.24 46.5231 12.84 46.2191 12.344C45.9151 11.848 45.7631 11.296 45.7631 10.688V3.392C45.7631 2.784 45.9151 2.232 46.2191 1.736C46.5231 1.24 46.9231 0.839999 47.4191 0.535999C47.9151 0.231999 48.4671 0.079999 49.0751 0.079999H56.5871C57.1951 0.079999 57.7471 0.231999 58.2431 0.535999C58.7551 0.839999 59.1551 1.24 59.4431 1.736C59.7471 2.232 59.8991 2.784 59.8991 3.392V10.688C59.8991 11.296 59.7471 11.848 59.4431 12.344C59.1551 12.84 58.7631 13.24 58.2671 13.544C57.7711 13.848 57.2111 14 56.5871 14H49.0751ZM49.1951 10.856H56.4671C56.5471 10.856 56.6111 10.832 56.6591 10.784C56.7231 10.72 56.7551 10.648 56.7551 10.568V3.512C56.7551 3.432 56.7231 3.368 56.6591 3.32C56.6111 3.256 56.5471 3.224 56.4671 3.224H49.1951C49.1151 3.224 49.0431 3.256 48.9791 3.32C48.9311 3.368 48.9071 3.432 48.9071 3.512V10.568C48.9071 10.648 48.9311 10.72 48.9791 10.784C49.0431 10.832 49.1151 10.856 49.1951 10.856ZM62.4523 19.52V0.079999H73.2762C73.8843 0.079999 74.4363 0.231999 74.9323 0.535999C75.4443 0.839999 75.8443 1.24 76.1323 1.736C76.4363 2.232 76.5883 2.784 76.5883 3.392V10.688C76.5883 11.296 76.4363 11.848 76.1323 12.344C75.8443 12.84 75.4443 13.24 74.9323 13.544C74.4363 13.848 73.8843 14 73.2762 14H65.5963V19.52H62.4523ZM65.8843 10.856H73.1562C73.2362 10.856 73.3003 10.832 73.3483 10.784C73.4123 10.72 73.4443 10.648 73.4443 10.568V3.512C73.4443 3.432 73.4123 3.368 73.3483 3.32C73.3003 3.256 73.2362 3.224 73.1562 3.224H65.8843C65.8043 3.224 65.7323 3.256 65.6683 3.32C65.6203 3.368 65.5963 3.432 65.5963 3.512V10.568C65.5963 10.648 65.6203 10.72 65.6683 10.784C65.7323 10.832 65.8043 10.856 65.8843 10.856Z" fill="#FF4857"/>
</svg>
